<svg width="37" height="37" viewBox="0 0 37 37" fill="none" xmlns="http://www.w3.org/2000/svg">

    <path d="M27.2171 9.69873L16.1325 9.69873C15.8438 9.69874 15.61 9.93255 15.6101 10.2212C15.6101 10.5099 15.8439 10.7437 16.1325 10.7437H25.9557L9.85126 26.8481C9.64703 27.0523 9.64703 27.3829 9.85126 27.5871C10.0555 27.7913 10.386 27.7913 10.5903 27.5871L26.6947 11.4827L26.6947 21.3058C26.6947 21.5945 26.9285 21.8283 27.2171 21.8283C27.3614 21.8283 27.4921 21.7698 27.5866 21.6753C27.6812 21.5807 27.7396 21.4501 27.7396 21.3058L27.7396 10.2212C27.7396 9.93255 27.5058 9.69874 27.2171 9.69873Z"
          />


</svg>
