<svg width="22" height="22" fill="none" xmlns="http://www.w3.org/2000/svg"><path d="M18.731 3.195A10.903 10.903 0 0010.989 0a10.96 10.96 0 00-7.754 3.192A10.793 10.793 0 000 10.898v.006c0 1.757.462 3.53 1.339 5.148L.03 22l6.016-1.369a11.012 11.012 0 004.939 1.174h.004a10.96 10.96 0 007.753-3.192c2.086-2.064 3.235-4.8 3.237-7.707 0-2.885-1.153-5.623-3.248-7.711zm-7.742 16.893h-.004a9.28 9.28 0 01-4.411-1.118l-.285-.155-4 .91.869-3.949-.168-.289c-.833-1.436-1.273-3.021-1.273-4.585C1.72 5.84 5.88 1.717 10.99 1.717a9.198 9.198 0 016.53 2.694c1.77 1.763 2.744 4.07 2.743 6.495-.002 5.063-4.162 9.182-9.273 9.182z"/><path d="M8 6.096h-.48a.925.925 0 00-.67.313c-.23.25-.88.857-.88 2.09 0 1.232.9 2.423 1.026 2.59.126.168 1.739 2.778 4.294 3.782 2.123.835 2.556.669 3.016.627.461-.041 1.488-.606 1.697-1.19.21-.586.21-1.087.147-1.192-.063-.104-.23-.167-.482-.292-.252-.126-1.483-.742-1.714-.826-.23-.083-.398-.125-.566.126-.167.25-.66.83-.808.997-.146.167-.293.188-.544.063-.252-.126-1.053-.395-2.013-1.248-.748-.664-1.266-1.511-1.413-1.762-.147-.25-.016-.386.11-.511.113-.113.266-.266.392-.412.125-.146.161-.25.245-.418.084-.167.042-.314-.021-.439s-.545-1.364-.769-1.86c-.188-.417-.386-.43-.565-.438z"/></svg>