<svg width="22" height="22" fill="none" xmlns="http://www.w3.org/2000/svg"><path d="M21.226 12.735c.657-5.525-.315-9.013-2.068-10.59l.001-.001C16.33-.55 6.777-.949 3.392 2.265c-1.52 1.572-2.055 3.88-2.113 6.736-.059 2.857-.129 8.21 4.859 9.661h.004l-.004 2.218s-.034.898.54 1.079c.656.212.953-.205 2.995-2.643 3.413.296 6.035-.382 6.333-.481.69-.231 4.59-.747 5.22-6.1zm-11.217 5.02s-2.16 2.695-2.833 3.394c-.22.228-.46.206-.457-.245 0-.296.017-3.68.017-3.68-4.229-1.213-3.98-5.77-3.934-8.155.046-2.385.482-4.338 1.77-5.654C7.54.631 15.915 1.254 18.05 3.26c2.609 2.312 1.68 8.846 1.686 9.07-.537 4.467-3.697 4.75-4.278 4.944-.249.082-2.554.675-5.449.482z"/><path d="M11.202 3.939c-.353 0-.353.55 0 .555 2.738.02 4.993 1.93 5.018 5.43 0 .37.54.365.536-.005-.03-3.772-2.492-5.959-5.554-5.98z"/><path d="M14.805 9.344c-.008.364.532.382.536.012.045-2.08-1.237-3.793-3.647-3.973-.353-.026-.39.529-.038.554 2.09.159 3.191 1.585 3.15 3.407zm-.577 2.366c-.453-.263-.914-.1-1.104.158l-.399.516c-.203.262-.581.227-.581.227-2.763-.73-3.502-3.621-3.502-3.621s-.034-.392.22-.602l.498-.412c.25-.198.407-.675.153-1.143-.678-1.226-1.134-1.648-1.366-1.973-.244-.305-.61-.374-.992-.168h-.008c-.793.464-1.66 1.332-1.383 2.226.474.942 1.345 3.946 4.12 6.216 1.305 1.073 3.369 2.173 4.245 2.427l.009.013c.863.288 1.703-.614 2.151-1.43v-.007c.199-.395.133-.77-.158-1.014-.515-.502-1.292-1.057-1.903-1.414z"/><path d="M12.072 7.429c.881.051 1.308.511 1.354 1.456.017.37.553.344.536-.025-.058-1.234-.702-1.922-1.86-1.986-.353-.021-.386.534-.03.555z"/></svg>