<svg width="22" height="22" fill="none" xmlns="http://www.w3.org/2000/svg"><path d="M11 22c6.066 0 11-4.934 11-11S17.066 0 11 0 0 4.934 0 11s4.934 11 11 11zm0-20.625c5.308 0 9.625 4.317 9.625 9.625S16.308 20.625 11 20.625 1.375 16.308 1.375 11 5.692 1.375 11 1.375z"/><path d="M7.24 12.975l1.437-.624-.403.404a.688.688 0 00-.202.486v2.69c0 .617.745.915 1.174.486l1.442-1.442 3.145 1.572a.687.687 0 00.983-.493L16.61 6.19a.689.689 0 00-.928-.763L4.026 9.989a.688.688 0 00-.12 1.22l2.69 1.716a.686.686 0 00.644.05zm7.797-5.818l-1.409 7.75-2.768-1.383a.686.686 0 00-.793.13l-.62.62v-.746l2.757-2.756c.534-.535-.067-1.417-.76-1.117l-4.416 1.916-1.241-.792 9.25-3.622z"/></svg>