<svg width="50" height="50" fill="none" xmlns="http://www.w3.org/2000/svg"><g clip-path="url(#clip0)"><path d="M48.94 18.738H3.088c-.575 0-1.042.467-1.042 1.043V44.79A5.216 5.216 0 007.257 50h37.514a5.216 5.216 0 005.21-5.21V19.78c0-.575-.466-1.042-1.042-1.042zM47.896 44.79a3.13 3.13 0 01-3.126 3.126H7.257a3.13 3.13 0 01-3.126-3.126V20.823h43.766V44.79z" fill="url(#paint0_linear)"/><path d="M49.947 9.095l-1.773-6.73C47.765.73 46.094-.297 44.437.078L2.45 10.04a3.102 3.102 0 00-1.967 1.41 3.09 3.09 0 00-.367 2.397l1.963 7.761a1.039 1.039 0 001.267.755 1.04 1.04 0 00.753-1.265l-.115-.453L49.17 10.38a1.043 1.043 0 00.777-1.284zM3.474 18.624L2.136 13.34a1.046 1.046 0 01.788-1.274l41.986-9.96a.94.94 0 01.227-.027c.467 0 .898.321 1.017.803l1.503 5.7-44.183 10.04z" fill="url(#paint1_linear)"/><path d="M11.89 18.847a1.05 1.05 0 00-1.401.467L6.32 27.65a1.044 1.044 0 001.867.932l4.168-8.337a1.044 1.044 0 00-.467-1.398z" fill="url(#paint2_linear)"/><path d="M22.31 18.847a1.048 1.048 0 00-1.4.467l-4.168 8.336a1.044 1.044 0 00.934 1.509c.382 0 .75-.21.932-.577l4.168-8.337a1.044 1.044 0 00-.467-1.398z" fill="url(#paint3_linear)"/><path d="M32.727 18.847a1.049 1.049 0 00-1.398.467L27.16 27.65a1.044 1.044 0 00.934 1.509c.381 0 .75-.21.932-.577l4.168-8.337a1.044 1.044 0 00-.467-1.398z" fill="url(#paint4_linear)"/><path d="M43.149 18.847a1.048 1.048 0 00-1.398.467l-4.169 8.336a1.044 1.044 0 00.934 1.509c.381 0 .75-.21.932-.577l4.168-8.337a1.044 1.044 0 00-.467-1.398z" fill="url(#paint5_linear)"/><path d="M48.94 27.075H3.088a1.043 1.043 0 000 2.084h45.85a1.041 1.041 0 100-2.084z" fill="url(#paint6_linear)"/><path d="M13.163 16.919L5.985 9.741a1.043 1.043 0 00-1.473 1.474l7.178 7.18a1.044 1.044 0 001.473-.003 1.043 1.043 0 000-1.473z" fill="url(#paint7_linear)"/><path d="M23.36 14.604l-7.183-7.178a1.043 1.043 0 00-1.474 1.473l7.182 7.178a1.047 1.047 0 001.476 0 1.043 1.043 0 000-1.473z" fill="url(#paint8_linear)"/><path d="M33.547 12.288l-7.171-7.18a1.043 1.043 0 00-1.474 1.474l7.172 7.18a1.047 1.047 0 001.473 0 1.043 1.043 0 000-1.474z" fill="url(#paint9_linear)"/><path d="M43.73 9.975l-7.174-7.18a1.043 1.043 0 00-1.474 1.474l7.174 7.18a1.047 1.047 0 001.473 0 1.043 1.043 0 000-1.474z" fill="url(#paint10_linear)"/></g><defs><linearGradient id="paint0_linear" x1="2.047" y1="34.05" x2="49.981" y2="34.05" gradientUnits="userSpaceOnUse"><stop stop-color="#CCD500"/><stop offset="1" stop-color="#D7FA00"/></linearGradient><linearGradient id="paint1_linear" x1=".02" y1="10.968" x2="49.981" y2="10.968" gradientUnits="userSpaceOnUse"><stop stop-color="#CCD500"/><stop offset="1" stop-color="#D7FA00"/></linearGradient><linearGradient id="paint2_linear" x1="6.211" y1="23.843" x2="12.466" y2="23.843" gradientUnits="userSpaceOnUse"><stop stop-color="#CCD500"/><stop offset="1" stop-color="#D7FA00"/></linearGradient><linearGradient id="paint3_linear" x1="16.633" y1="23.843" x2="22.886" y2="23.843" gradientUnits="userSpaceOnUse"><stop stop-color="#CCD500"/><stop offset="1" stop-color="#D7FA00"/></linearGradient><linearGradient id="paint4_linear" x1="27.051" y1="23.843" x2="33.304" y2="23.843" gradientUnits="userSpaceOnUse"><stop stop-color="#CCD500"/><stop offset="1" stop-color="#D7FA00"/></linearGradient><linearGradient id="paint5_linear" x1="37.473" y1="23.843" x2="43.725" y2="23.843" gradientUnits="userSpaceOnUse"><stop stop-color="#CCD500"/><stop offset="1" stop-color="#D7FA00"/></linearGradient><linearGradient id="paint6_linear" x1="2.047" y1="28.096" x2="49.981" y2="28.096" gradientUnits="userSpaceOnUse"><stop stop-color="#CCD500"/><stop offset="1" stop-color="#D7FA00"/></linearGradient><linearGradient id="paint7_linear" x1="4.207" y1="13.973" x2="13.468" y2="13.973" gradientUnits="userSpaceOnUse"><stop stop-color="#CCD500"/><stop offset="1" stop-color="#D7FA00"/></linearGradient><linearGradient id="paint8_linear" x1="14.398" y1="11.657" x2="23.665" y2="11.657" gradientUnits="userSpaceOnUse"><stop stop-color="#CCD500"/><stop offset="1" stop-color="#D7FA00"/></linearGradient><linearGradient id="paint9_linear" x1="24.598" y1="9.34" x2="33.852" y2="9.34" gradientUnits="userSpaceOnUse"><stop stop-color="#CCD500"/><stop offset="1" stop-color="#D7FA00"/></linearGradient><linearGradient id="paint10_linear" x1="34.777" y1="7.027" x2="44.034" y2="7.027" gradientUnits="userSpaceOnUse"><stop stop-color="#CCD500"/><stop offset="1" stop-color="#D7FA00"/></linearGradient><clipPath id="clip0"><path fill="#fff" d="M0 0h50v50H0z"/></clipPath></defs></svg>