<svg width="57" height="57" fill="none" xmlns="http://www.w3.org/2000/svg"><path d="M51.122 33.844c-.267-1.425-1.692-2.405-3.117-2.138-.09 0-.178 0-.268.09l-.98.267a10.143 10.143 0 00-3.384-2.049l-7.748-2.76c.89-1.337 1.514-2.85 1.692-4.454l2.138-1.069c.89-.445 1.514-1.336 1.514-2.404v-2.049c0-.445-.09-.801-.267-1.247-.624-1.158-1.96-1.781-3.207-1.336V1.781h-1.78c0 1.514-1.159 2.672-2.673 2.672h-8.995a4.41 4.41 0 00-4.453 4.453v5.878c-1.425-.445-2.94.357-3.385 1.693-.089.267-.089.534-.089.801v2.049c0 .98.535 1.959 1.514 2.404l2.138 1.069c.178 1.603.801 3.117 1.692 4.453l-7.66 2.761c-4.096 1.425-6.679 5.077-6.679 9.263v15.942h41.86c1.513 0 2.671-1.158 2.671-2.672V40.969H39.01l12.736-3.83-.623-3.295zm-6.413-1.158l-7.57 2.227-.089.089-2.316.712v-.98c0-.98-.801-1.78-1.78-1.78h-1.96c-.446 0-.98.177-1.247.533L28.5 34.823l-1.247-1.246a1.758 1.758 0 00-1.247-.535h-1.96c-.979 0-1.78.802-1.78 1.781v2.672c0 .98.801 1.782 1.78 1.782h1.96c.446 0 .98-.179 1.247-.535l1.247-1.247 1.247 1.247c.356.356.801.535 1.247.535h.534l.535 2.76v10.51c0 .267.089.623.178.89h-2.85V40.97h-1.782v12.468h-6.323l-1.692-23.601 2.939-1.069a9.812 9.812 0 002.494 1.781 7.545 7.545 0 006.768 0 9.814 9.814 0 002.494-1.78l8.372 2.938c.801.267 1.425.535 2.048.98zm-12.914 4.72h-.712l-1.247-1.336 1.247-1.336h1.87v1.514c-.534.268-.89.624-1.158 1.158zm2.049.357l2.85-.891 2.583 2.048-5.7 1.692-.357-1.87c-.089-.356.178-.801.624-.98zm4.987-1.425l4.097-1.247 2.583 2.048-4.097 1.247-2.583-2.049zm-11.578-.268l-1.247 1.336h-1.96v-2.672h1.96l1.247 1.336zm12.469 8.461l.89-1.781h4.276l-.891 1.781h-4.275zm-1.96 0h-3.918V42.75h4.81l-.892 1.781zm-23.423-6.68l1.514-6.768 2.049-.713 1.514 20.84-3.296-8.46.98-3.028-2.76-1.87zm7.036-22.889l4.898-1.246a13.073 13.073 0 019.174.98l.178.088v6.947c0 3.028-1.781 5.878-4.542 7.214-1.603.802-3.563.802-5.255 0-2.672-1.336-4.453-4.186-4.453-7.214v-6.769zm16.655 1.515c.445-.179.98.089 1.157.623v2.316c0 .356-.178.623-.534.801l-1.247.624v-4.186l.624-.178zM24.047 6.234h8.906c.98 0 1.87-.356 2.672-.89v7.481c-3.117-1.336-6.502-1.692-9.797-.89l-4.453 1.157V8.906c0-1.514 1.158-2.672 2.672-2.672zm-6.235 13.182v-2.049c0-.178 0-.267.09-.445.178-.356.623-.624 1.068-.445l.624.178v4.186l-1.247-.624c-.356-.178-.535-.534-.535-.801zm-8.906 19.86c0-3.206 1.96-6.145 4.988-7.392l-1.514 6.858 2.582 1.781-.801 2.227 4.097 10.688H8.906V39.276zm40.078 14.161h-14.25c-.534 0-.89-.356-.89-.89v-6.234h16.031v6.234c0 .534-.356.89-.89.89zm.891-8.906h-3.919l.89-1.781h3.029v1.781zm-2.316-8.015l-2.582-2.049 3.295-.98h.267c.445 0 .802.268.89.713l.357 1.781-2.227.535z" fill="url(#paint0_linear)"/><path d="M35.625 48.984h5.344v1.782h-5.344v-1.782z" fill="url(#paint1_linear)"/><path d="M42.75 48.984h2.672v1.782H42.75v-1.782z" fill="url(#paint2_linear)"/><defs><linearGradient id="paint0_linear" x1="7.125" y1="27.955" x2="51.745" y2="27.955" gradientUnits="userSpaceOnUse"><stop stop-color="#CCD500"/><stop offset="1" stop-color="#D7FA00"/></linearGradient><linearGradient id="paint1_linear" x1="35.625" y1="49.857" x2="40.969" y2="49.857" gradientUnits="userSpaceOnUse"><stop stop-color="#CCD500"/><stop offset="1" stop-color="#D7FA00"/></linearGradient><linearGradient id="paint2_linear" x1="42.75" y1="49.857" x2="45.422" y2="49.857" gradientUnits="userSpaceOnUse"><stop stop-color="#CCD500"/><stop offset="1" stop-color="#D7FA00"/></linearGradient></defs></svg>