<svg width="53" height="53" fill="none" xmlns="http://www.w3.org/2000/svg"><g clip-path="url(#clip0)"><path d="M49.402 28.547l-.535-.987a2.27 2.27 0 00-2.706-1.081V1.9c0-1.047-.851-1.9-1.9-1.9h-1.263c-1.048 0-1.9.853-1.9 1.9v.474h-3.282a.775.775 0 100 1.55h3.281v19.977H18.525a.775.775 0 100 1.55h22.572v3.178a43.482 43.482 0 01-14.596 2.544c-4.993 0-9.994-.884-14.7-2.58V25.45h3.42a.775.775 0 100-1.55H11.8V3.924h22.71a.775.775 0 100-1.55H11.8V1.9C11.8.853 10.948 0 9.9 0H8.638c-1.048 0-1.9.853-1.9 1.9v24.545a2.272 2.272 0 00-2.603 1.115l-.535.987a2.266 2.266 0 00-.17 1.774 2.261 2.261 0 001.153 1.354 48.67 48.67 0 005.092 2.194L37.493 52.34a3.94 3.94 0 002.187.66h2.914a1.46 1.46 0 001.405-1.044 1.46 1.46 0 00-.593-1.647l-4.04-2.683a.775.775 0 10-.858 1.292l3.812 2.531h-2.64c-.474 0-.934-.139-1.329-.401L14.847 35.442c1.568.384 3.155.692 4.753.922L35.755 47.09a.772.772 0 001.075-.217.775.775 0 00-.218-1.075l-13.66-9.07a48.253 48.253 0 007.215-.01l-1.24.824a.775.775 0 10.858 1.292l3.748-2.489a49.386 49.386 0 004.785-.943l-6.307 4.188a.775.775 0 10.858 1.291l10.691-7.099a48.644 48.644 0 004.859-2.107 2.26 2.26 0 001.153-1.354 2.267 2.267 0 00-.17-1.774zM44.61 16.793h-1.962v-2.91h1.962v2.91zm0-4.46h-1.962v-2.91h1.962v2.91zm-1.962 6.01h1.962v2.91h-1.962v-2.91zm.35-16.792h1.262a.35.35 0 01.35.35v5.971h-1.962V1.901a.35.35 0 01.35-.35zm-.35 21.253h1.962v4.393c-.646.297-1.301.578-1.962.844v-5.237zm-34.36 4.345v-4.345h1.962v5.195a42.882 42.882 0 01-1.962-.85zm0-13.266h1.962v2.91H8.288v-2.91zm0 4.46h1.962v2.91H8.288v-2.91zm1.962-6.01H8.288v-2.91h1.962v2.91zM8.638 1.55H9.9a.35.35 0 01.35.35v5.971H8.288v-5.97a.35.35 0 01.35-.35zm39.455 28.305a.722.722 0 01-.368.432 47.652 47.652 0 01-21.224 5.02 47.654 47.654 0 01-21.224-5.02.722.722 0 01-.369-.432.727.727 0 01.055-.57l.535-.987a.727.727 0 01.972-.303 45.058 45.058 0 0020.03 4.728 45.056 45.056 0 0020.03-4.728.73.73 0 01.973.303l.535.987a.727.727 0 01.055.57z" fill="url(#paint0_linear)"/><path d="M23.32 45.36l-8.567 5.688a2.394 2.394 0 01-1.33.401h-2.639l10.309-6.844a.775.775 0 10-.858-1.292L9.698 50.309a1.46 1.46 0 00-.593 1.647A1.46 1.46 0 0010.51 53h2.914a3.94 3.94 0 002.187-.66l8.566-5.688a.775.775 0 10-.858-1.292z" fill="url(#paint1_linear)"/><path d="M33.304 12a1.147 1.147 0 00-.931-.785l-3.343-.485-1.495-3.03a1.147 1.147 0 00-1.034-.643c-.442 0-.839.246-1.035.643l-1.494 3.029-3.343.485a1.147 1.147 0 00-.931.786c-.137.42-.025.874.292 1.182l2.418 2.358-.537 3.132c-.08.472.132.936.54 1.183.41.247.92.219 1.3-.072l2.79-2.14 2.79 2.14a1.15 1.15 0 001.299.072c.41-.247.622-.711.54-1.183l-.537-3.132 2.419-2.358c.317-.308.429-.762.292-1.182zm-3.943 2.576a1.153 1.153 0 00-.331 1.021l.4 2.34-2.227-1.71a1.153 1.153 0 00-1.404.001l-2.228 1.708.401-2.338a1.153 1.153 0 00-.331-1.022l-1.992-1.942 2.752-.4c.376-.054.7-.29.869-.63l1.23-2.495 1.232 2.494c.168.341.493.577.869.632l2.752.4-1.992 1.94z" fill="url(#paint2_linear)"/></g><defs><linearGradient id="paint0_linear" x1="3.322" y1="25.959" x2="49.679" y2="25.959" gradientUnits="userSpaceOnUse"><stop stop-color="#CCD500"/><stop offset="1" stop-color="#D7FA00"/></linearGradient><linearGradient id="paint1_linear" x1="9.041" y1="47.991" x2="24.524" y2="47.991" gradientUnits="userSpaceOnUse"><stop stop-color="#CCD500"/><stop offset="1" stop-color="#D7FA00"/></linearGradient><linearGradient id="paint2_linear" x1="19.641" y1="13.408" x2="33.361" y2="13.408" gradientUnits="userSpaceOnUse"><stop stop-color="#CCD500"/><stop offset="1" stop-color="#D7FA00"/></linearGradient><clipPath id="clip0"><path fill="#fff" d="M0 0h53v53H0z"/></clipPath></defs></svg>