<svg width="55" height="55" fill="none" xmlns="http://www.w3.org/2000/svg"><g clip-path="url(#clip0)"><path d="M34.52 6.853a15.628 15.628 0 00-18.134 2.909c-5.574 5.574-6.132 14.463-1.298 20.675a.865.865 0 001.217.152.867.867 0 00.151-1.216c-4.298-5.524-3.802-13.428 1.156-18.386A13.898 13.898 0 0133.74 8.4a.867.867 0 10.781-1.547z" fill="url(#paint0_linear)"/><path d="M41.442 13.776a.867.867 0 00-1.547.781 13.899 13.899 0 01-2.589 16.124c-4.958 4.957-12.862 5.454-18.385 1.155a.867.867 0 00-1.065 1.368 15.576 15.576 0 009.59 3.286 15.65 15.65 0 0011.086-4.584 15.629 15.629 0 002.91-18.13z" fill="url(#paint1_linear)"/><path d="M39.203 10.475A15.87 15.87 0 0037.82 9.09a.866.866 0 10-1.148 1.299 14.194 14.194 0 011.232 1.232.864.864 0 001.224.076.866.866 0 00.075-1.223z" fill="url(#paint2_linear)"/><path d="M47.916 22.388a2.941 2.941 0 000-3.074l-1.14-1.87a1.22 1.22 0 01-.163-.824l.34-2.16a2.94 2.94 0 00-1.18-2.846l-1.767-1.286a1.22 1.22 0 01-.468-.698l-.515-2.127a2.94 2.94 0 00-2.175-2.175l-2.127-.515a1.22 1.22 0 01-.699-.468l-1.285-1.767a2.94 2.94 0 00-2.846-1.18l-2.16.34a1.22 1.22 0 01-.825-.164l-1.87-1.14a2.941 2.941 0 00-3.074 0l-1.87 1.14a1.22 1.22 0 01-.824.163l-2.16-.34a2.94 2.94 0 00-2.846 1.18l-1.285 1.767c-.17.234-.418.4-.7.468l-2.126.515a2.94 2.94 0 00-2.175 2.175l-.515 2.127a1.22 1.22 0 01-.468.699l-1.767 1.285a2.94 2.94 0 00-1.18 2.847l.34 2.16a1.22 1.22 0 01-.164.824l-1.14 1.87a2.941 2.941 0 000 3.074l1.14 1.87c.15.246.209.539.164.824l-.34 2.16a2.94 2.94 0 001.18 2.846l1.767 1.285c.233.17.4.418.467.7l.515 2.126a2.94 2.94 0 002.175 2.175l.888.215-6.01 13.408a.867.867 0 00.893 1.215l4.837-.578 2.786 3.995a.867.867 0 001.502-.141l6.138-13.694.778.474a2.948 2.948 0 003.074 0l.806-.491 6.146 13.71a.867.867 0 001.502.142l2.786-3.995 4.837.578a.867.867 0 00.893-1.215l-6.013-13.415.854-.207a2.941 2.941 0 002.175-2.175l.515-2.127a1.22 1.22 0 01.468-.699l1.768-1.285a2.94 2.94 0 001.18-2.847l-.34-2.16a1.22 1.22 0 01.163-.824l1.14-1.87zM18.09 52.382l-2.208-3.166a.866.866 0 00-.814-.365l-3.832.458 5.476-12.216c.1.073.19.162.264.264l1.285 1.767c.122.168.26.32.41.456l-2.883 6.43a.867.867 0 001.582.709l2.872-6.407c.282.039.573.038.866-.008l2.16-.34c.13-.02.26-.018.387.003L18.09 52.382zm25.709-3.073l-3.833-.458a.866.866 0 00-.814.365l-2.208 3.166-5.568-12.42a1.22 1.22 0 01.354.002l2.16.34c.304.048.606.047.9.003l2.874 6.412a.867.867 0 101.582-.709l-2.894-6.454c.14-.13.269-.273.384-.431l1.286-1.768c.08-.111.18-.207.291-.284L43.8 49.31zm2.637-27.824l-1.14 1.87a2.956 2.956 0 00-.396 1.996l.34 2.16c.072.455-.115.905-.487 1.175l-1.768 1.286a2.955 2.955 0 00-1.133 1.693l-.514 2.127c-.108.446-.452.79-.898.898l-2.127.515a2.956 2.956 0 00-1.693 1.133l-1.286 1.767c-.27.372-.72.558-1.175.487l-2.16-.34a2.95 2.95 0 00-1.995.396l-1.87 1.14a1.215 1.215 0 01-1.27 0l-1.87-1.14A2.955 2.955 0 0023 38.252l-2.16.34a1.213 1.213 0 01-1.176-.487l-1.285-1.768a2.955 2.955 0 00-1.694-1.133l-2.126-.514a1.214 1.214 0 01-.898-.898l-.515-2.127a2.956 2.956 0 00-1.133-1.694l-1.767-1.285a1.214 1.214 0 01-.487-1.175l.34-2.16a2.954 2.954 0 00-.396-1.996l-1.14-1.87a1.214 1.214 0 010-1.269l1.14-1.87a2.956 2.956 0 00.396-1.996l-.34-2.16a1.214 1.214 0 01.487-1.175l1.768-1.286a2.955 2.955 0 001.133-1.693l.515-2.127c.108-.446.452-.79.898-.898l2.127-.514a2.955 2.955 0 001.693-1.133l1.285-1.767c.27-.372.72-.559 1.175-.487l2.16.34c.69.108 1.4-.032 1.996-.396l1.87-1.14a1.215 1.215 0 011.269 0l1.87 1.14A2.954 2.954 0 0032 3.45l2.16-.34c.454-.071.905.115 1.175.487l1.286 1.768a2.955 2.955 0 001.693 1.132l2.127.515c.445.108.79.452.898.898l.514 2.127c.165.68.567 1.281 1.133 1.693l1.767 1.286c.372.27.559.72.487 1.175l-.34 2.16c-.108.69.032 1.399.396 1.995l1.14 1.87c.24.392.24.878 0 1.27z" fill="url(#paint3_linear)"/></g><defs><linearGradient id="paint0_linear" x1="11.803" y1="17.707" x2="34.996" y2="17.707" gradientUnits="userSpaceOnUse"><stop stop-color="#CCD500"/><stop offset="1" stop-color="#D7FA00"/></linearGradient><linearGradient id="paint1_linear" x1="17.521" y1="24.658" x2="43.128" y2="24.658" gradientUnits="userSpaceOnUse"><stop stop-color="#CCD500"/><stop offset="1" stop-color="#D7FA00"/></linearGradient><linearGradient id="paint2_linear" x1="36.379" y1="10.363" x2="39.421" y2="10.363" gradientUnits="userSpaceOnUse"><stop stop-color="#CCD500"/><stop offset="1" stop-color="#D7FA00"/></linearGradient><linearGradient id="paint3_linear" x1="6.648" y1="26.939" x2="48.35" y2="26.939" gradientUnits="userSpaceOnUse"><stop stop-color="#CCD500"/><stop offset="1" stop-color="#D7FA00"/></linearGradient><clipPath id="clip0"><path fill="#fff" d="M0 0h55v55H0z"/></clipPath></defs></svg>