<svg width="39" height="45" fill="none" xmlns="http://www.w3.org/2000/svg"><path fill-rule="evenodd" clip-rule="evenodd" d="M28.008 34.598c5.38-3.113 9-8.93 9-15.594C37.008 9.06 28.948 1 19.004 1S1 9.06 1 19.004c0 7.07 4.075 13.188 10.004 16.133v1.11C4.506 33.227 0 26.642 0 19.004 0 8.508 8.508 0 19.004 0c10.495 0 19.004 8.508 19.004 19.004 0 7.238-4.046 13.53-10 16.74v-1.146z" fill="#595F54"/><path d="M18.646 44.354a.5.5 0 00.708 0l3.181-3.182a.5.5 0 10-.707-.707L19 43.293l-2.828-2.828a.5.5 0 10-.708.707l3.182 3.182zM18.5 30v14h1V30h-1z" fill="#242424"/></svg>