<svg width="26" height="26" viewBox="0 0 26 26" fill="none" xmlns="http://www.w3.org/2000/svg">
    <path d="M13.0001 0.0539551C5.82041 0.0539551 0 5.87436 0 13.054C0 19.4934 4.68678 24.8262 10.8319 25.8589V15.7662H7.69593V12.1343H10.8319V9.45621C10.8319 6.3489 12.7298 4.6556 15.5021 4.6556C16.8299 4.6556 17.971 4.75454 18.3022 4.79812V8.04608L16.3794 8.04701C14.872 8.04701 14.5814 8.76316 14.5814 9.81444V12.1324H18.1782L17.709 15.7643H14.5814V25.9457C21.0135 25.1629 26 19.6942 26 13.0503C26 5.87436 20.1796 0.0539551 13.0001 0.0539551Z"
          />
</svg>
