<svg width="31" height="39" fill="none" xmlns="http://www.w3.org/2000/svg"><path clip-rule="evenodd" d="M22.058 10.267a14.234 14.234 0 017.42 12.503c0 7.865-6.374 14.24-14.239 14.24C7.375 37.01 1 30.635 1 22.77c0-5.394 3-10.088 7.423-12.505V9.137C3.429 11.639 0 16.804 0 22.77c0 8.417 6.823 15.24 15.24 15.24 8.416 0 15.239-6.823 15.239-15.24 0-5.965-3.428-11.13-8.42-13.632v1.129z"/><path class="arrow-up" d="M15.594.646a.5.5 0 00-.707 0l-3.182 3.182a.5.5 0 10.707.707l2.828-2.828 2.829 2.828a.5.5 0 00.707-.707L15.594.646zm.146 13.418V1h-1v13.065h1z"/></svg>