<svg width="26" height="26" fill="none" xmlns="http://www.w3.org/2000/svg"><path d="M15.488 13a2.488 2.488 0 11-4.976 0 2.488 2.488 0 014.976 0z"/><path d="M18.818 8.598a2.315 2.315 0 00-.558-.859 2.312 2.312 0 00-.859-.558c-.263-.102-.658-.224-1.386-.257-.787-.036-1.023-.044-3.016-.044-1.994 0-2.23.008-3.017.044-.727.033-1.123.155-1.386.257a2.31 2.31 0 00-.858.558 2.316 2.316 0 00-.559.859c-.102.263-.223.658-.256 1.386-.036.787-.044 1.023-.044 3.016s.008 2.23.044 3.017c.033.728.154 1.123.256 1.386.12.324.31.617.559.858.24.248.534.439.858.559.263.102.659.224 1.386.257.787.035 1.023.043 3.017.043 1.993 0 2.23-.008 3.016-.043.728-.034 1.123-.155 1.386-.258a2.472 2.472 0 001.417-1.416c.102-.263.224-.658.257-1.386.036-.787.044-1.024.044-3.017 0-1.993-.008-2.23-.044-3.016-.033-.728-.155-1.123-.257-1.386zm-5.82 8.235a3.833 3.833 0 110-7.666 3.833 3.833 0 010 7.666zm3.986-6.922a.896.896 0 110-1.792.896.896 0 010 1.792z"/><path d="M13 0C5.821 0 0 5.821 0 13s5.821 13 13 13 13-5.821 13-13S20.179 0 13 0zm7.42 16.078c-.036.794-.163 1.337-.347 1.812a3.817 3.817 0 01-2.183 2.183c-.475.184-1.018.31-1.812.347-.796.036-1.05.045-3.078.045-2.027 0-2.281-.009-3.078-.045-.794-.037-1.337-.163-1.811-.347a3.659 3.659 0 01-1.323-.861 3.658 3.658 0 01-.86-1.322c-.185-.475-.312-1.018-.348-1.812-.036-.796-.045-1.05-.045-3.078 0-2.027.009-2.282.045-3.078.036-.794.162-1.337.347-1.812.187-.498.481-.949.861-1.322.373-.38.824-.673 1.322-.86.475-.185 1.018-.312 1.812-.348.796-.036 1.05-.045 3.078-.045 2.027 0 2.282.009 3.078.045.794.036 1.337.163 1.812.347.498.187.95.481 1.322.861.38.373.674.824.86 1.322.186.475.312 1.018.348 1.812.036.796.045 1.05.045 3.078 0 2.027-.009 2.282-.045 3.078z"/></svg>