<svg width="26" height="28" fill="none" xmlns="http://www.w3.org/2000/svg"><path d="M13 27.356c7.168 0 13-6.055 13-13.5 0-7.444-5.832-13.5-13-13.5S0 6.412 0 13.856c0 7.445 5.832 13.5 13 13.5zm0-25.312c6.273 0 11.375 5.299 11.375 11.812 0 6.514-5.102 11.813-11.375 11.813-6.272 0-11.375-5.299-11.375-11.813C1.625 7.343 6.728 2.044 13 2.044z"/><path d="M8.556 16.28l1.699-.766-.477.496a.861.861 0 00-.238.597v3.302c0 .756.88 1.122 1.386.596l1.705-1.771 3.716 1.93c.481.25 1.063-.047 1.163-.605l2.12-12.106c.111-.651-.506-1.178-1.097-.937l-13.775 5.6c-.618.249-.7 1.126-.141 1.497l3.178 2.105a.782.782 0 00.76.062zm9.215-7.14l-1.665 9.512-3.272-1.698a.789.789 0 00-.937.159l-.732.76v-.914l3.257-3.383c.632-.656-.079-1.738-.898-1.37l-5.218 2.35-1.467-.971L17.77 9.14z"/></svg>