<svg width="28" height="28" fill="none" xmlns="http://www.w3.org/2000/svg"><path d="M27.016 15.987c.835-6.78-.402-11.061-2.632-12.997v-.001c-3.6-3.307-15.758-3.796-20.066.148-1.934 1.93-2.615 4.761-2.69 8.267-.075 3.506-.163 10.075 6.184 11.857h.006l-.006 2.721s-.043 1.103.688 1.325c.835.26 1.213-.251 3.811-3.244 4.345.364 7.681-.469 8.06-.59.878-.284 5.842-.917 6.645-7.486zm-14.277 6.161s-2.75 3.307-3.605 4.165c-.28.28-.587.253-.582-.3 0-.364.021-4.518.021-4.518-5.382-1.488-5.064-7.081-5.006-10.007.058-2.927.614-5.325 2.252-6.94 3.778-3.416 14.438-2.652 17.154-.19 3.32 2.838 2.139 10.857 2.146 11.13-.683 5.484-4.705 5.831-5.445 6.069-.316.1-3.25.829-6.935.591z"/><path d="M14.257 5.19c-.45 0-.45.675 0 .68 3.485.026 6.355 2.368 6.386 6.664 0 .454.688.448.683-.005h-.002c-.037-4.63-3.17-7.313-7.067-7.34z"/><path d="M18.842 11.823c-.01.447.677.469.683.015.057-2.552-1.575-4.654-4.642-4.876-.45-.031-.496.65-.048.68 2.66.195 4.061 1.946 4.007 4.18zm-.734 2.904c-.576-.322-1.163-.122-1.406.194l-.507.634c-.258.321-.74.279-.74.279-3.516-.897-4.457-4.445-4.457-4.445s-.043-.48.28-.738l.634-.506c.317-.244.518-.829.195-1.403-.864-1.505-1.444-2.023-1.739-2.421-.31-.375-.777-.46-1.262-.206h-.01c-1.01.569-2.115 1.634-1.761 2.731.603 1.157 1.711 4.843 5.244 7.629 1.66 1.317 4.288 2.667 5.403 2.979l.01.016c1.1.353 2.168-.754 2.739-1.756v-.008c.253-.485.169-.944-.201-1.245-.656-.616-1.645-1.297-2.422-1.734z"/><path d="M15.364 9.473c1.12.063 1.664.627 1.723 1.787.02.454.703.422.682-.031-.074-1.514-.893-2.358-2.368-2.437-.45-.026-.491.655-.037.68z"/></svg>