<svg width="26" height="26" fill="none" xmlns="http://www.w3.org/2000/svg"><path d="M11.38 15.435L15.61 13l-4.23-2.435v4.87z"/><path d="M13 0C5.821 0 0 5.821 0 13s5.821 13 13 13 13-5.821 13-13S20.179 0 13 0zm8.123 13.013s0 2.637-.334 3.908a2.036 2.036 0 01-1.432 1.432c-1.272.334-6.357.334-6.357.334s-5.072 0-6.357-.347a2.036 2.036 0 01-1.432-1.432C4.877 15.65 4.877 13 4.877 13s0-2.636.334-3.908a2.077 2.077 0 011.432-1.445C7.915 7.312 13 7.312 13 7.312s5.085 0 6.357.348a2.036 2.036 0 011.432 1.432c.348 1.272.334 3.921.334 3.921z"/></svg>