<svg width="22" height="22" viewBox="0 0 22 22" fill="none" xmlns="http://www.w3.org/2000/svg">
    <path d="M11 22C17.0656 22 22 17.0656 22 11C22 4.93442 17.0656 0 11 0C4.93442 0 0 4.93442 0 11C0 17.0656 4.93442 22 11 22ZM11 1.375C16.3075 1.375 20.625 5.6925 20.625 11C20.625 16.3075 16.3075 20.625 11 20.625C5.6925 20.625 1.375 16.3075 1.375 11C1.375 5.6925 5.6925 1.375 11 1.375Z"
          />
    <path d="M7.23992 12.9753L8.67725 12.3511L8.27392 12.7553C8.14467 12.8846 8.07225 13.0597 8.07225 13.2412V15.9316C8.07225 16.5476 8.81659 16.8464 9.24559 16.4174L10.6884 14.9746L13.8326 16.5467C14.2396 16.7502 14.7318 16.5091 14.8162 16.0544L16.6101 6.19017C16.7045 5.65942 16.182 5.23042 15.6824 5.42659L4.02609 9.98884C3.50359 10.1923 3.43392 10.9073 3.90692 11.2089L6.59642 12.9249C6.78892 13.0478 7.03184 13.067 7.23992 12.9753ZM15.0371 7.15726L13.6282 14.9077L10.8598 13.5244C10.5922 13.3906 10.2732 13.4465 10.0669 13.6537L9.44725 14.2733V13.5281L12.2037 10.7717C12.7381 10.2373 12.1368 9.35542 11.4438 9.65517L7.02817 11.571L5.787 10.779L15.0371 7.15726Z"
          />
</svg>
