<svg width="22" height="22" viewBox="0 0 22 22" fill="none" xmlns="http://www.w3.org/2000/svg">
    <path d="M18.731 3.19479C16.6643 1.13582 13.915 0.00117493 10.9889 0C8.0694 0 5.3157 1.13364 3.23541 3.19211C1.15143 5.2541 0.00268555 7.99437 0 10.8981V10.9015V10.9035C0.000335693 12.661 0.462082 14.434 1.33858 16.0524L0.0300446 22L6.04617 20.6315C7.56989 21.3994 9.27 21.8043 10.9847 21.805H10.9891C13.9081 21.805 16.6618 20.6712 18.7424 18.6125C20.8283 16.5488 21.9775 13.8121 21.9789 10.9065C21.9797 8.02139 20.8264 5.28264 18.731 3.19479ZM10.9889 20.0879H10.9851C9.4454 20.0872 7.91985 19.7007 6.57355 18.9697L6.28905 18.8153L2.28859 19.7252L3.15753 15.7761L2.99002 15.4872C2.15717 14.0509 1.71707 12.4655 1.71707 10.9016C1.72026 5.83989 5.87917 1.71707 10.9886 1.71707C13.4569 1.71808 15.7762 2.67497 17.5192 4.41118C19.2884 6.17424 20.2625 8.48079 20.2616 10.906C20.2596 15.9689 16.0999 20.0879 10.9889 20.0879Z"
          />
    <path d="M8.00053 6.0957H7.51881C7.35114 6.0957 7.07889 6.15848 6.8486 6.40907C6.61815 6.65984 5.96875 7.26593 5.96875 8.4986C5.96875 9.73126 6.86958 10.9223 6.99513 11.0896C7.12085 11.2568 8.73402 13.8672 11.289 14.8714C13.4124 15.7059 13.8446 15.5399 14.3054 15.4981C14.7663 15.4565 15.7926 14.8922 16.0021 14.3073C16.2116 13.7223 16.2116 13.2208 16.1488 13.1161C16.0859 13.0117 15.9182 12.949 15.6669 12.8238C15.4155 12.6985 14.1835 12.0821 13.953 11.9984C13.7226 11.9149 13.5551 11.8732 13.3874 12.1241C13.2197 12.3745 12.7261 12.9539 12.5794 13.1211C12.4329 13.2884 12.2862 13.3094 12.0347 13.184C11.7833 13.0583 10.982 12.7891 10.0217 11.9358C9.27432 11.2716 8.75568 10.4246 8.60898 10.1739C8.46245 9.92328 8.59337 9.78766 8.71942 9.66261C8.83238 9.55049 8.98496 9.39708 9.11067 9.25088C9.23622 9.10452 9.27197 9.00012 9.3559 8.83295C9.43965 8.66577 9.39769 8.51941 9.33492 8.39419C9.27197 8.26881 8.78958 7.02994 8.56601 6.53445H8.56618C8.37785 6.11719 8.17963 6.10309 8.00053 6.0957Z"
          />
</svg>
