<svg width="22" height="22" viewBox="0 0 22 22" fill="none" xmlns="http://www.w3.org/2000/svg">

        <path d="M21.2262 12.7351C21.8826 7.2104 20.9109 3.72248 19.1582 2.1449L19.1591 2.14398C16.3303 -0.550099 6.7768 -0.94885 3.39247 2.26498C1.87264 3.83707 1.33731 6.14432 1.27864 9.00065C1.21997 11.8579 1.15031 17.2103 6.13789 18.6623H6.14247L6.13789 20.8797C6.13789 20.8797 6.10397 21.7781 6.6778 21.9587C7.33414 22.1713 7.63114 21.7542 9.67255 19.3159C13.0862 19.612 15.7079 18.9337 16.0058 18.8347C16.6951 18.6037 20.5956 18.0876 21.2262 12.7351ZM10.009 17.7557C10.009 17.7557 7.84839 20.4498 7.17647 21.1492C6.95647 21.3766 6.71539 21.3555 6.71905 20.9045C6.71905 20.6084 6.73555 17.2232 6.73555 17.2232C2.50697 16.0113 2.7563 11.4537 2.80214 9.0694C2.84797 6.68423 3.2843 4.73082 4.5713 3.4154C7.54039 0.631484 15.916 1.2539 18.05 3.25957C20.6588 5.57232 19.7302 12.1063 19.7357 12.3291C19.1995 16.7969 16.0388 17.0802 15.4576 17.2736C15.2092 17.3561 12.9038 17.9492 10.009 17.7557Z"
              />
        <path d="M11.2022 3.93896C10.8493 3.93896 10.8493 4.48896 11.2022 4.49355C13.9403 4.51463 16.1953 6.42313 16.22 9.92388C16.22 10.2933 16.7609 10.2887 16.7563 9.9193H16.7554C16.726 6.14722 14.2639 3.96005 11.2022 3.93896Z"
              />
        <path d="M14.8052 9.34361C14.7969 9.70845 15.3369 9.72586 15.3414 9.35645C15.3864 7.27653 14.1039 5.56328 11.694 5.3827C11.3411 5.35703 11.3044 5.91162 11.6564 5.93728C13.7464 6.09587 14.8474 7.5222 14.8052 9.34361Z"
              />
        <path d="M14.2283 11.7094C13.7755 11.4473 13.3144 11.6104 13.1238 11.868L12.725 12.3841C12.5224 12.6463 12.1438 12.6114 12.1438 12.6114C9.38102 11.8809 8.64218 8.98968 8.64218 8.98968C8.64218 8.98968 8.60827 8.59827 8.86127 8.38835L9.35993 7.97585C9.60927 7.77785 9.76693 7.30118 9.51302 6.83277C8.83468 5.60718 8.3791 5.1846 8.14718 4.8601C7.90335 4.55485 7.53668 4.4861 7.15535 4.69235H7.1471C6.35418 5.15618 5.4861 6.02427 5.76385 6.91802C6.23777 7.86035 7.1086 10.8643 9.88426 13.1339C11.1887 14.2074 13.253 15.3074 14.1293 15.5613L14.1376 15.5741C15.0011 15.8619 15.8408 14.9599 16.289 14.1432V14.1368C16.4879 13.7417 16.4219 13.3677 16.1313 13.1229C15.6162 12.6206 14.8388 12.066 14.2283 11.7094Z"
              />
        <path d="M12.0722 7.42871C12.9531 7.48004 13.3803 7.94021 13.4261 8.88529C13.4426 9.25471 13.9789 9.22904 13.9624 8.85962C13.9037 7.62579 13.2602 6.93829 12.1016 6.87412C11.7486 6.85304 11.7156 7.40762 12.0722 7.42871Z"
              />

</svg>
