<svg width="53" height="53" viewBox="0 0 53 53" fill="none" xmlns="http://www.w3.org/2000/svg">
<g clip-path="url(#clip0)">
<path d="M49.4018 28.5466L48.867 27.5602C48.3336 26.5762 47.1944 26.1429 46.1611 26.4786V1.90078C46.1611 0.852743 45.3085 0 44.2603 0H42.9981C41.9499 0 41.0973 0.852743 41.0973 1.90078V2.37358H37.8161C37.3877 2.37358 37.0406 2.72075 37.0406 3.14899C37.0406 3.57722 37.3877 3.92439 37.8161 3.92439H41.0973V23.9005H18.5252C18.0969 23.9005 17.7498 24.2476 17.7498 24.6759C17.7498 25.1041 18.0969 25.4513 18.5252 25.4513H41.0973V28.6291C36.4212 30.3011 31.4572 31.1728 26.5007 31.1728C21.5078 31.1728 16.5068 30.2887 11.8007 28.5926V25.4513H15.2206C15.649 25.4513 15.9961 25.1041 15.9961 24.6759C15.9961 24.2476 15.649 23.9005 15.2206 23.9005H11.8007V3.92439H34.5116C34.9399 3.92439 35.287 3.57722 35.287 3.14899C35.287 2.72075 34.9399 2.37358 34.5116 2.37358H11.8008V1.90078C11.8008 0.852743 10.9481 0 9.9 0H8.63774C7.5897 0 6.73706 0.852743 6.73706 1.90078V26.4449C5.73213 26.1699 4.65017 26.6089 4.13458 27.5601L3.59975 28.5466C3.30231 29.0954 3.24162 29.7256 3.42916 30.3213C3.6164 30.9157 4.02592 31.3965 4.58256 31.6752C6.23594 32.5029 7.93759 33.2347 9.67492 33.8691L37.4934 52.3401C38.1436 52.7718 38.8998 53 39.6801 53H42.5938C43.2461 53 43.8108 52.5804 43.9994 51.956C44.1877 51.3315 43.9493 50.6696 43.4059 50.3088L39.3659 47.6263C39.0091 47.3895 38.5279 47.4866 38.2911 47.8434C38.0543 48.2002 38.1513 48.6814 38.5082 48.9182L42.3198 51.4491H39.6803C39.2061 51.4491 38.7465 51.3104 38.3514 51.048L14.8468 35.4416C16.4152 35.8264 18.002 36.1344 19.5996 36.3636L35.7546 47.0901C35.8865 47.1777 36.0355 47.2197 36.1828 47.2197C36.434 47.2197 36.6803 47.0979 36.8295 46.873C37.0664 46.5162 36.9693 46.0351 36.6124 45.7982L22.9523 36.7281C24.1334 36.8152 25.3172 36.859 26.5008 36.859C27.7236 36.859 28.9468 36.8114 30.1669 36.7186L28.9272 37.5418C28.5704 37.7786 28.4732 38.2599 28.7101 38.6166C28.8594 38.8414 29.1056 38.9632 29.3568 38.9632C29.5041 38.9632 29.6531 38.9213 29.785 38.8337L33.5328 36.3453C35.1418 36.1101 36.7396 35.7946 38.3183 35.4016L32.0112 39.5895C31.6544 39.8263 31.5573 40.3076 31.7941 40.6643C31.9434 40.8891 32.1897 41.0109 32.4408 41.0109C32.5881 41.0109 32.7371 40.969 32.869 40.8814L43.5605 33.7825C45.2167 33.1681 46.8399 32.4657 48.419 31.6751C48.9756 31.3965 49.3853 30.9156 49.5724 30.3212C49.7598 29.7257 49.6991 29.0954 49.4018 28.5466ZM44.6103 16.7929H42.6481V13.8834H44.6103V16.7929ZM44.6103 12.3326H42.6481V9.42328H44.6103V12.3326ZM42.6481 18.3437H44.6103V21.253H42.6481V18.3437ZM42.9981 1.55082H44.2603C44.4532 1.55082 44.6103 1.70786 44.6103 1.90078V7.87246H42.6481V1.90078C42.6481 1.70786 42.8051 1.55082 42.9981 1.55082ZM42.6481 22.8038H44.6103V27.1965C43.9635 27.4941 43.309 27.7753 42.6481 28.0405V22.8038ZM8.28787 27.1493V22.8038H10.2501V27.9989C9.58911 27.7317 8.93446 27.449 8.28787 27.1493ZM8.28787 13.8834H10.2501V16.7929H8.28787V13.8834ZM8.28787 18.3437H10.2501V21.253H8.28787V18.3437ZM10.25 12.3326H8.28787V9.42328H10.2501V12.3326H10.25ZM8.63774 1.55082H9.9C10.0929 1.55082 10.25 1.70786 10.25 1.90078V7.87246H8.28787V1.90078C8.28787 1.70786 8.44482 1.55082 8.63774 1.55082ZM48.093 29.8556C48.0332 30.0457 47.9024 30.1995 47.7246 30.2885C41.1649 33.5725 33.8257 35.3083 26.5007 35.3083C19.1756 35.3083 11.8365 33.5724 5.2767 30.2885C5.09898 30.1996 4.96819 30.0458 4.90833 29.8556C4.84806 29.6643 4.86749 29.4619 4.96302 29.2857L5.49785 28.2992C5.62998 28.0553 5.87914 27.9168 6.13896 27.9168C6.2501 27.9168 6.36341 27.9422 6.47021 27.9956C12.6626 31.0886 19.589 32.7236 26.5006 32.7236C33.4121 32.7236 40.3386 31.0887 46.5309 27.9956C46.8871 27.8176 47.3145 27.9508 47.5033 28.2993L48.0381 29.2857C48.1338 29.4619 48.1533 29.6643 48.093 29.8556Z" fill="url(#paint0_linear)"/>
<path d="M23.3191 45.3604L14.7528 51.0483C14.3578 51.3107 13.8982 51.4493 13.4238 51.4493H10.7843L21.0928 44.6046C21.4496 44.3677 21.5468 43.8865 21.3099 43.5298C21.0731 43.173 20.5917 43.0759 20.2351 43.3127L9.69824 50.3089C9.15483 50.6698 8.91631 51.3317 9.10479 51.9561C9.29327 52.5806 9.85807 53 10.5103 53H13.424C14.2046 53 14.9607 52.7718 15.6108 52.3401L24.177 46.6522C24.5338 46.4153 24.6309 45.9341 24.3941 45.5774C24.157 45.2207 23.6756 45.1234 23.3191 45.3604Z" fill="url(#paint1_linear)"/>
<path d="M33.3039 12.0006C33.1672 11.5799 32.8103 11.2791 32.3725 11.2154L29.0302 10.7297L27.5355 7.70104C27.5355 7.70104 27.5355 7.70104 27.5354 7.70093C27.3396 7.30434 26.9432 7.05786 26.5009 7.05786C26.0586 7.05786 25.6622 7.30423 25.4663 7.70104L23.9716 10.7297L20.6293 11.2154C20.1916 11.279 19.8346 11.5798 19.6979 12.0006C19.5613 12.4213 19.6732 12.8746 19.9898 13.1832L22.4084 15.5406L21.8712 18.6734C21.7903 19.1446 22.0026 19.6087 22.4118 19.8559C22.8209 20.103 23.3307 20.0748 23.7103 19.7839L26.5009 17.6439L29.2915 19.7839C29.4989 19.9429 29.7453 20.0234 29.9927 20.0234C30.198 20.0234 30.4043 19.968 30.5899 19.8559C30.9992 19.6087 31.2115 19.1446 31.1305 18.6734L30.5933 15.5406L33.0117 13.1833C33.3287 12.8746 33.4406 12.4214 33.3039 12.0006ZM29.3615 14.5759C29.0893 14.8411 28.9654 15.223 29.0298 15.5971L29.4309 17.9364L27.2029 16.2279C26.9963 16.0696 26.7486 15.9904 26.501 15.9904C26.2534 15.9904 26.0057 16.0696 25.799 16.228L23.5711 17.9364L23.9722 15.5975C24.0366 15.223 23.9127 14.8411 23.6406 14.576L21.6487 12.6345L24.4012 12.2345C24.777 12.18 25.1017 11.9441 25.27 11.6034L26.5009 9.10908L27.7318 11.6034C27.9 11.9441 28.2249 12.18 28.6005 12.2345L31.3531 12.6345L29.3615 14.5759Z" fill="url(#paint2_linear)"/>
</g>
<defs>
<linearGradient id="paint0_linear" x1="3.32227" y1="25.9592" x2="49.6792" y2="25.9592" gradientUnits="userSpaceOnUse">
<stop stop-color="#CCD500"/>
<stop offset="1" stop-color="#D7FA00"/>
</linearGradient>
<linearGradient id="paint1_linear" x1="9.04102" y1="47.9914" x2="24.5236" y2="47.9914" gradientUnits="userSpaceOnUse">
<stop stop-color="#CCD500"/>
<stop offset="1" stop-color="#D7FA00"/>
</linearGradient>
<linearGradient id="paint2_linear" x1="19.6406" y1="13.4083" x2="33.3612" y2="13.4083" gradientUnits="userSpaceOnUse">
<stop stop-color="#CCD500"/>
<stop offset="1" stop-color="#D7FA00"/>
</linearGradient>
<clipPath id="clip0">
<rect width="53" height="53" fill="white"/>
</clipPath>
</defs>
</svg>
