<svg width="50" height="50" viewBox="0 0 50 50" fill="none" xmlns="http://www.w3.org/2000/svg">
<g clip-path="url(#clip0)">
<path d="M48.9394 18.7384H3.08896C2.51375 18.7384 2.04688 19.2053 2.04688 19.7805V44.7898C2.04688 47.6616 4.38319 50 7.25711 50H44.771C47.645 50 49.9813 47.6616 49.9813 44.7898V19.7805C49.9814 19.2052 49.5146 18.7384 48.9394 18.7384ZM47.8973 44.7897C47.8973 46.5133 46.4947 47.9158 44.7711 47.9158H7.25721C5.53362 47.9158 4.13105 46.5133 4.13105 44.7897V20.8225H47.8973V44.7897Z" fill="url(#paint0_linear)"/>
<path d="M49.9473 9.09517L48.1737 2.36562C47.7652 0.729561 46.0938 -0.297871 44.4369 0.0772682L2.45047 10.0393C1.62516 10.2268 0.926951 10.7291 0.483036 11.4502C0.0391212 12.1713 -0.0921776 13.0216 0.116201 13.8469L2.07943 21.6081C2.19617 22.0791 2.62133 22.3939 3.0881 22.3939C3.17144 22.3939 3.25692 22.3855 3.3465 22.3626C3.90296 22.223 4.24058 21.6561 4.09883 21.0976L3.98424 20.6454L49.1698 10.379C49.4449 10.3145 49.6845 10.1435 49.8304 9.90181C49.9785 9.66002 50.0181 9.36822 49.9473 9.09517ZM3.47379 18.6237L2.1358 13.3405C2.06702 13.0654 2.11284 12.782 2.25879 12.5402C2.4068 12.3006 2.64018 12.1338 2.92359 12.0671L44.91 2.10722C44.985 2.08846 45.0621 2.08016 45.1371 2.08016C45.604 2.08016 46.0354 2.40108 46.1542 2.88251L47.6568 8.58257L3.47379 18.6237Z" fill="url(#paint1_linear)"/>
<path d="M11.8893 18.8468C11.3724 18.5947 10.7514 18.7988 10.4888 19.3137L6.32057 27.6501C6.06422 28.1648 6.2726 28.79 6.78744 29.0485C6.93955 29.1236 7.09801 29.159 7.25431 29.159C7.6357 29.159 8.00459 28.9485 8.18796 28.5818L12.3562 20.2454C12.6125 19.7304 12.4041 19.1052 11.8893 18.8468Z" fill="url(#paint2_linear)"/>
<path d="M22.3092 18.8468C21.7944 18.5947 21.1692 18.7988 20.9107 19.3137L16.7424 27.6501C16.4861 28.1648 16.6945 28.79 17.2093 29.0485C17.3614 29.1236 17.5199 29.159 17.6762 29.159C18.0576 29.159 18.4265 28.9485 18.6078 28.5818L22.776 20.2454C23.0323 19.7304 22.8239 19.1052 22.3092 18.8468Z" fill="url(#paint3_linear)"/>
<path d="M32.7271 18.8468C32.2144 18.5947 31.5892 18.7988 31.3287 19.3137L27.1604 27.6501C26.9041 28.1648 27.1124 28.79 27.6273 29.0485C27.7794 29.1236 27.9378 29.159 28.0942 29.159C28.4755 29.159 28.8444 28.9485 29.0258 28.5818L33.194 20.2454C33.4503 19.7304 33.2419 19.1052 32.7271 18.8468Z" fill="url(#paint4_linear)"/>
<path d="M43.149 18.8467C42.6321 18.5945 42.0111 18.7987 41.7505 19.3136L37.5823 27.65C37.3259 28.1647 37.5343 28.7899 38.0492 29.0484C38.2013 29.1234 38.3597 29.1589 38.516 29.1589C38.8974 29.1589 39.2663 28.9484 39.4476 28.5816L43.6159 20.2452C43.8721 19.7303 43.6637 19.1051 43.149 18.8467Z" fill="url(#paint5_linear)"/>
<path d="M48.9394 27.0747H3.08896C2.51375 27.0747 2.04688 27.5416 2.04688 28.1168C2.04688 28.692 2.51375 29.1589 3.08896 29.1589H48.9394C49.5166 29.1589 49.9815 28.692 49.9815 28.1168C49.9815 27.5416 49.5146 27.0747 48.9394 27.0747Z" fill="url(#paint6_linear)"/>
<path d="M13.163 16.919L5.98533 9.74132C5.57893 9.33492 4.91823 9.33492 4.51183 9.74132C4.10543 10.1477 4.10543 10.8084 4.51183 11.2148L11.6895 18.3945C11.8938 18.5967 12.1605 18.6988 12.4273 18.6988C12.6941 18.6988 12.9608 18.5968 13.163 18.3925C13.5694 17.986 13.5694 17.3254 13.163 16.919Z" fill="url(#paint7_linear)"/>
<path d="M23.3606 14.6036L16.1767 7.42589C15.7703 7.01949 15.1096 7.01949 14.7032 7.42589C14.2968 7.8323 14.2968 8.49299 14.7032 8.89939L21.8851 16.0771C22.0894 16.2792 22.3561 16.3814 22.6229 16.3814C22.8897 16.3814 23.1564 16.2793 23.3607 16.0771C23.7671 15.6707 23.7671 15.01 23.3606 14.6036Z" fill="url(#paint8_linear)"/>
<path d="M33.5474 12.288L26.376 5.10827C25.9696 4.70187 25.3089 4.70187 24.9025 5.10827C24.4961 5.51467 24.4961 6.17536 24.9025 6.58176L32.0739 13.7615C32.2781 13.9636 32.5448 14.0658 32.8116 14.0658C33.0784 14.0658 33.3451 13.9658 33.5474 13.7615C33.9538 13.3551 33.9538 12.6944 33.5474 12.288Z" fill="url(#paint9_linear)"/>
<path d="M43.7292 9.97475L36.5556 2.79503C36.1492 2.38863 35.4885 2.38863 35.0821 2.79503C34.6757 3.20144 34.6757 3.86213 35.0821 4.26853L42.2556 11.4482C42.4599 11.6504 42.7266 11.7526 42.9934 11.7526C43.2602 11.7526 43.5269 11.6505 43.7291 11.4482C44.1356 11.0418 44.1356 10.3811 43.7292 9.97475Z" fill="url(#paint10_linear)"/>
</g>
<defs>
<linearGradient id="paint0_linear" x1="2.04687" y1="34.0502" x2="49.9813" y2="34.0502" gradientUnits="userSpaceOnUse">
<stop stop-color="#CCD500"/>
<stop offset="1" stop-color="#D7FA00"/>
</linearGradient>
<linearGradient id="paint1_linear" x1="0.0195312" y1="10.9684" x2="49.9814" y2="10.9684" gradientUnits="userSpaceOnUse">
<stop stop-color="#CCD500"/>
<stop offset="1" stop-color="#D7FA00"/>
</linearGradient>
<linearGradient id="paint2_linear" x1="6.21094" y1="23.8427" x2="12.4658" y2="23.8427" gradientUnits="userSpaceOnUse">
<stop stop-color="#CCD500"/>
<stop offset="1" stop-color="#D7FA00"/>
</linearGradient>
<linearGradient id="paint3_linear" x1="16.6328" y1="23.8427" x2="22.8856" y2="23.8427" gradientUnits="userSpaceOnUse">
<stop stop-color="#CCD500"/>
<stop offset="1" stop-color="#D7FA00"/>
</linearGradient>
<linearGradient id="paint4_linear" x1="27.0508" y1="23.8427" x2="33.3036" y2="23.8427" gradientUnits="userSpaceOnUse">
<stop stop-color="#CCD500"/>
<stop offset="1" stop-color="#D7FA00"/>
</linearGradient>
<linearGradient id="paint5_linear" x1="37.4727" y1="23.8426" x2="43.7254" y2="23.8426" gradientUnits="userSpaceOnUse">
<stop stop-color="#CCD500"/>
<stop offset="1" stop-color="#D7FA00"/>
</linearGradient>
<linearGradient id="paint6_linear" x1="2.04687" y1="28.0955" x2="49.9815" y2="28.0955" gradientUnits="userSpaceOnUse">
<stop stop-color="#CCD500"/>
<stop offset="1" stop-color="#D7FA00"/>
</linearGradient>
<linearGradient id="paint7_linear" x1="4.20703" y1="13.9732" x2="13.4678" y2="13.9732" gradientUnits="userSpaceOnUse">
<stop stop-color="#CCD500"/>
<stop offset="1" stop-color="#D7FA00"/>
</linearGradient>
<linearGradient id="paint8_linear" x1="14.3984" y1="11.6567" x2="23.6654" y2="11.6567" gradientUnits="userSpaceOnUse">
<stop stop-color="#CCD500"/>
<stop offset="1" stop-color="#D7FA00"/>
</linearGradient>
<linearGradient id="paint9_linear" x1="24.5977" y1="9.34011" x2="33.8522" y2="9.34011" gradientUnits="userSpaceOnUse">
<stop stop-color="#CCD500"/>
<stop offset="1" stop-color="#D7FA00"/>
</linearGradient>
<linearGradient id="paint10_linear" x1="34.7773" y1="7.02688" x2="44.034" y2="7.02688" gradientUnits="userSpaceOnUse">
<stop stop-color="#CCD500"/>
<stop offset="1" stop-color="#D7FA00"/>
</linearGradient>
<clipPath id="clip0">
<rect width="50" height="50" fill="white"/>
</clipPath>
</defs>
</svg>
