<svg width="57" height="57" viewBox="0 0 57 57" fill="none" xmlns="http://www.w3.org/2000/svg">
<path d="M51.1219 33.8438C50.8547 32.4188 49.4297 31.4391 48.0047 31.7062C47.9156 31.7062 47.8266 31.7063 47.7375 31.7953L46.7578 32.0625C45.7781 31.1719 44.6203 30.4594 43.3734 30.0141L35.625 27.2531C36.5156 25.9172 37.1391 24.4031 37.3172 22.8L39.4547 21.7312C40.3453 21.2859 40.9687 20.3953 40.9687 19.3266V17.2781C40.9687 16.8328 40.8797 16.4766 40.7016 16.0312C40.0781 14.8734 38.7422 14.25 37.4953 14.6953V1.78125H35.7141C35.7141 3.29531 34.5562 4.45312 33.0422 4.45312H24.0469C21.5531 4.45312 19.5937 6.4125 19.5937 8.90625V14.7844C18.1687 14.3391 16.6547 15.1406 16.2094 16.4766C16.1203 16.7437 16.1203 17.0109 16.1203 17.2781V19.3266C16.1203 20.3063 16.6547 21.2859 17.6344 21.7312L19.7719 22.8C19.95 24.4031 20.5734 25.9172 21.4641 27.2531L13.8047 30.0141C9.70781 31.4391 7.125 35.0906 7.125 39.2766V55.2188H48.9844C50.4984 55.2188 51.6562 54.0609 51.6562 52.5469V40.9688H39.0094L51.7453 37.1391L51.1219 33.8438ZM44.7094 32.6859L37.1391 34.9125L37.05 35.0016L34.7344 35.7141V34.7344C34.7344 33.7547 33.9328 32.9531 32.9531 32.9531H30.9937C30.5484 32.9531 30.0141 33.1312 29.7469 33.4875L28.5 34.8234L27.2531 33.5766C26.8969 33.2203 26.4516 33.0422 26.0062 33.0422H24.0469C23.0672 33.0422 22.2656 33.8438 22.2656 34.8234V37.4953C22.2656 38.475 23.0672 39.2766 24.0469 39.2766H26.0062C26.4516 39.2766 26.9859 39.0984 27.2531 38.7422L28.5 37.4953L29.7469 38.7422C30.1031 39.0984 30.5484 39.2766 30.9937 39.2766H31.5281L32.0625 42.0375V52.5469C32.0625 52.8141 32.1516 53.1703 32.2406 53.4375H29.3906V40.9688H27.6094V53.4375H21.2859L19.5937 29.8359L22.5328 28.7672C23.2453 29.4797 24.1359 30.1031 25.0266 30.5484C27.1641 31.6172 29.6578 31.6172 31.7953 30.5484C32.6859 30.1031 33.5766 29.4797 34.2891 28.7672L42.6609 31.7062C43.4625 31.9734 44.0859 32.2406 44.7094 32.6859ZM31.7953 37.4062H31.0828L29.8359 36.0703L31.0828 34.7344H32.9531V36.2484C32.4187 36.5156 32.0625 36.8719 31.7953 37.4062ZM33.8437 37.7625L36.6937 36.8719L39.2766 38.9203L33.5766 40.6125L33.2203 38.7422C33.1312 38.3859 33.3984 37.9406 33.8437 37.7625ZM38.8312 36.3375L42.9281 35.0906L45.5109 37.1391L41.4141 38.3859L38.8312 36.3375ZM27.2531 36.0703L26.0062 37.4062H24.0469V34.7344H26.0062L27.2531 36.0703ZM39.7219 44.5312L40.6125 42.75H44.8875L43.9969 44.5312H39.7219ZM37.7625 44.5312H33.8437V42.75H38.6531L37.7625 44.5312ZM14.3391 37.8516L15.8531 31.0828L17.9016 30.3703L19.4156 51.2109L16.1203 42.75L17.1 39.7219L14.3391 37.8516ZM21.375 14.9625L26.2734 13.7156C29.3906 12.9141 32.5969 13.2703 35.4469 14.6953L35.625 14.7844V21.7312C35.625 24.7594 33.8438 27.6094 31.0828 28.9453C29.4797 29.7469 27.5203 29.7469 25.8281 28.9453C23.1562 27.6094 21.375 24.7594 21.375 21.7312V14.9625ZM38.0297 16.4766C38.475 16.2984 39.0094 16.5656 39.1875 17.1V17.3672V19.4156C39.1875 19.7719 39.0094 20.0391 38.6531 20.2172L37.4062 20.8406V16.6547L38.0297 16.4766ZM24.0469 6.23438H32.9531C33.9328 6.23438 34.8234 5.87813 35.625 5.34375V12.825C32.5078 11.4891 29.1234 11.1328 25.8281 11.9344L21.375 13.0922V8.90625C21.375 7.39219 22.5328 6.23438 24.0469 6.23438ZM17.8125 19.4156V17.3672C17.8125 17.1891 17.8125 17.1 17.9016 16.9219C18.0797 16.5656 18.525 16.2984 18.9703 16.4766L19.5937 16.6547V20.8406L18.3469 20.2172C17.9906 20.0391 17.8125 19.6828 17.8125 19.4156ZM8.90625 39.2766C8.90625 36.0703 10.8656 33.1312 13.8937 31.8844L12.3797 38.7422L14.9625 40.5234L14.1609 42.75L18.2578 53.4375H8.90625V39.2766ZM48.9844 53.4375H34.7344C34.2 53.4375 33.8437 53.0812 33.8437 52.5469V46.3125H49.875V52.5469C49.875 53.0812 49.5187 53.4375 48.9844 53.4375ZM49.875 44.5312H45.9562L46.8469 42.75H49.875V44.5312ZM47.5594 36.5156L44.9766 34.4672L48.2719 33.4875H48.5391C48.9844 33.4875 49.3406 33.7547 49.4297 34.2L49.7859 35.9813L47.5594 36.5156Z" fill="url(#paint0_linear)"/>
<path d="M35.625 48.9844H40.9688V50.7656H35.625V48.9844Z" fill="url(#paint1_linear)"/>
<path d="M42.75 48.9844H45.4219V50.7656H42.75V48.9844Z" fill="url(#paint2_linear)"/>
<defs>
<linearGradient id="paint0_linear" x1="7.125" y1="27.9547" x2="51.7453" y2="27.9547" gradientUnits="userSpaceOnUse">
<stop stop-color="#CCD500"/>
<stop offset="1" stop-color="#D7FA00"/>
</linearGradient>
<linearGradient id="paint1_linear" x1="35.625" y1="49.8568" x2="40.9687" y2="49.8568" gradientUnits="userSpaceOnUse">
<stop stop-color="#CCD500"/>
<stop offset="1" stop-color="#D7FA00"/>
</linearGradient>
<linearGradient id="paint2_linear" x1="42.75" y1="49.8568" x2="45.4219" y2="49.8568" gradientUnits="userSpaceOnUse">
<stop stop-color="#CCD500"/>
<stop offset="1" stop-color="#D7FA00"/>
</linearGradient>
</defs>
</svg>
