<svg width="55" height="55" viewBox="0 0 55 55" fill="none" xmlns="http://www.w3.org/2000/svg">
<g clip-path="url(#clip0)">
<path d="M34.5201 6.85308C28.4703 3.79607 21.1827 4.96493 16.3862 9.76154C10.8115 15.3361 10.2535 24.2248 15.0884 30.4375C15.2593 30.6571 15.5148 30.772 15.773 30.772C15.9591 30.772 16.1465 30.7124 16.3047 30.5892C16.6825 30.2952 16.7504 29.7506 16.4565 29.3728C12.1576 23.849 12.6544 15.9449 17.6121 10.9872C21.8778 6.72128 28.3584 5.68165 33.7385 8.40018C34.1656 8.61631 34.687 8.44465 34.9029 8.01743C35.1188 7.59021 34.9475 7.06889 34.5201 6.85308Z" fill="url(#paint0_linear)"/>
<path d="M41.442 13.7757C41.2261 13.3485 40.705 13.1771 40.2775 13.3928C39.8503 13.6086 39.6787 14.1298 39.8945 14.5572C42.6111 19.9365 41.571 26.4162 37.3062 30.6808C32.3484 35.6384 24.4444 36.1351 18.9206 31.8364C18.5427 31.5425 17.9982 31.6104 17.7042 31.9881C17.4102 32.3659 17.4782 32.9104 17.856 33.2044C20.686 35.4068 24.0709 36.49 27.4452 36.49C31.4785 36.49 35.4967 34.942 38.5321 31.9065C43.3275 27.1112 44.4969 19.825 41.442 13.7757Z" fill="url(#paint1_linear)"/>
<path d="M39.2033 10.4746C38.9886 10.2316 38.763 9.99161 38.5328 9.76151C38.3026 9.5313 38.0627 9.30572 37.8197 9.09098C37.4611 8.77387 36.9132 8.80782 36.5964 9.1665C36.2792 9.52507 36.3129 10.0728 36.6716 10.3898C36.8881 10.581 37.1018 10.7821 37.307 10.9872C37.512 11.1924 37.7131 11.406 37.9044 11.6225C38.0756 11.8163 38.3143 11.9152 38.5542 11.9152C38.7582 11.9152 38.9629 11.8436 39.1278 11.6979C39.4866 11.381 39.5203 10.8333 39.2033 10.4746Z" fill="url(#paint2_linear)"/>
<path d="M47.9165 22.3879C48.4945 21.4396 48.4945 20.2619 47.9163 19.3139L46.776 17.444C46.6259 17.1975 46.5678 16.9049 46.6127 16.62L46.9525 14.4605C47.1258 13.36 46.6737 12.2693 45.7728 11.614L44.0056 10.3285C43.772 10.1585 43.6059 9.91045 43.5379 9.62965L43.0233 7.5028C42.762 6.42246 41.9285 5.58908 40.8483 5.32761L38.7213 4.81285C38.4405 4.74485 38.1923 4.57877 38.0224 4.34513L36.7368 2.5775C36.0815 1.67666 34.9908 1.2243 33.8906 1.39768L31.7303 1.73757C31.4454 1.78236 31.1527 1.72435 30.9065 1.57418L29.0363 0.433569C28.0882 -0.144577 26.9104 -0.144469 25.9623 0.433569L24.0923 1.57385C23.8461 1.72414 23.5535 1.78193 23.2683 1.73724L21.1087 1.39736C20.0085 1.2242 18.9176 1.67634 18.2624 2.57718L16.9769 4.34438C16.8069 4.57802 16.5588 4.7441 16.2778 4.81209L14.151 5.32675C13.0709 5.588 12.2373 6.42149 11.9758 7.50173L11.461 9.62868C11.393 9.90949 11.2271 10.1577 10.9933 10.3276L9.22569 11.6132C8.32485 12.2684 7.87282 13.3589 8.04588 14.4595L8.38576 16.6198C8.43056 16.9048 8.37255 17.1974 8.22237 17.4436L7.08187 19.314C6.50394 20.2621 6.50394 21.4399 7.08198 22.3879L8.22227 24.2579C8.37244 24.5043 8.43056 24.7969 8.38565 25.0818L8.04577 27.2414C7.8725 28.3418 8.32464 29.4326 9.22548 30.0879L10.9927 31.3733C11.2263 31.5431 11.3924 31.7914 11.4604 32.0722L11.9751 34.199C12.2363 35.2794 13.0698 36.1127 14.15 36.3742L15.0382 36.5892L9.0275 49.9969C8.89978 50.2819 8.93512 50.6134 9.12021 50.865C9.30519 51.1166 9.61102 51.2493 9.92125 51.2121L14.7576 50.6338L17.5437 54.629C17.7068 54.8626 17.9729 54.9999 18.2544 54.9999C18.2814 54.9999 18.3087 54.9986 18.3357 54.9962C18.6466 54.9669 18.9179 54.7726 19.0456 54.4878L25.1842 40.7938L25.9621 41.268C26.4361 41.5571 26.9675 41.7016 27.4991 41.7016C28.0306 41.7016 28.562 41.557 29.036 41.268L29.8419 40.7767L35.9883 54.4878C36.116 54.7728 36.3871 54.9669 36.6981 54.9962C36.7253 54.9987 36.7525 55 36.7795 55C37.061 55 37.3272 54.8627 37.4902 54.6291L40.2763 50.634L45.1126 51.2122C45.4226 51.2491 45.7287 51.1167 45.9137 50.8651C46.0986 50.6135 46.1342 50.282 46.0064 49.997L39.9926 36.5819L40.8473 36.3751C41.9274 36.1138 42.761 35.2803 43.0225 34.2001L43.5373 32.0731C43.6053 31.7923 43.7713 31.5441 44.005 31.3742L45.7726 30.0886C46.6735 29.4334 47.1255 28.3429 46.9524 27.2424L46.6126 25.082C46.5678 24.797 46.6258 24.5044 46.7759 24.2582L47.9165 22.3879ZM18.0899 52.3819L15.882 49.2158C15.6989 48.9532 15.3859 48.8127 15.0682 48.851L11.2355 49.3092L16.7117 37.0929C16.8118 37.1664 16.9016 37.2546 16.9757 37.3566L18.2613 39.1242C18.3834 39.2921 18.5207 39.4443 18.6704 39.5799L15.7879 46.0099C15.5922 46.4467 15.7875 46.9595 16.2242 47.1553C16.3394 47.207 16.4598 47.2314 16.5782 47.2314C16.9093 47.2314 17.2255 47.0406 17.3696 46.719L20.2418 40.3119C20.5245 40.3507 20.8155 40.35 21.1075 40.304L23.2678 39.9641C23.3971 39.9438 23.5279 39.9457 23.6552 39.9667L18.0899 52.3819ZM43.7986 49.309L39.9658 48.851C39.6477 48.8128 39.335 48.9532 39.152 49.2158L36.944 52.3819L31.3764 39.9619C31.4932 39.946 31.6123 39.946 31.7302 39.9645L33.8897 40.3044C34.1936 40.3522 34.4964 40.3507 34.7898 40.3069L37.6642 46.7192C37.8085 47.0409 38.1245 47.2316 38.4556 47.2316C38.5741 47.2316 38.6945 47.2072 38.8095 47.1555C39.2463 46.9598 39.4417 46.4469 39.2459 46.0101L36.3525 39.5556C36.492 39.4261 36.621 39.2827 36.7361 39.1245L38.0215 37.3573C38.1025 37.2459 38.2017 37.1504 38.3132 37.0732L43.7986 49.309ZM46.4364 21.4853L45.2959 23.3556C44.9323 23.9522 44.7915 24.661 44.9001 25.3513L45.24 27.5116C45.3115 27.9659 45.1248 28.4161 44.753 28.6865L42.9852 29.9723C42.4194 30.3839 42.017 30.9852 41.8525 31.6653L41.3377 33.7922C41.2297 34.2381 40.8858 34.5822 40.4398 34.6902L38.3128 35.2048C37.6326 35.3694 37.0313 35.7718 36.6196 36.3377L35.3342 38.1049C35.0637 38.4769 34.6136 38.6634 34.1591 38.5918L31.9995 38.2519C31.3091 38.1433 30.6002 38.2838 30.0035 38.6477L28.1336 39.788C27.7423 40.0265 27.2558 40.0265 26.8647 39.788L24.9944 38.6476C24.5293 38.3639 23.996 38.2161 23.4564 38.2161C23.3039 38.2161 23.1506 38.2279 22.9986 38.2518L20.8382 38.5917C20.3838 38.6633 19.9337 38.4765 19.6633 38.1047L18.3775 36.337C17.9659 35.7712 17.3646 35.3688 16.6845 35.2043L14.5576 34.6895C14.1117 34.5815 13.7676 34.2376 13.6596 33.7916L13.145 31.6647C12.9804 30.9845 12.5781 30.3831 12.0121 29.9714L10.245 28.6859C9.87313 28.4154 9.68654 27.9651 9.75808 27.5108L10.098 25.3512C10.2066 24.6608 10.0661 23.952 9.70222 23.3553L8.56193 21.4852C8.32335 21.0938 8.32335 20.6075 8.56193 20.2163L9.70243 18.346C10.0662 17.7494 10.2068 17.0406 10.0982 16.3503L9.75829 14.19C9.68686 13.7358 9.87356 13.2855 10.2453 13.0151L12.0131 11.7293C12.5789 11.3177 12.9813 10.7164 13.1458 10.0364L13.6606 7.90939C13.7686 7.46348 14.1125 7.11941 14.5586 7.01145L16.6855 6.49679C17.3657 6.33222 17.9671 5.92982 18.3786 5.36392L19.664 3.59672C19.9345 3.22482 20.3846 3.03802 20.8391 3.10967L22.9987 3.44955C23.6892 3.55837 24.3981 3.41765 24.9947 3.05381L26.8646 1.91352C27.256 1.67505 27.7424 1.67505 28.1335 1.91352L30.0038 3.05392C30.6004 3.41786 31.3094 3.55848 31.9996 3.44977L34.16 3.10988C34.6141 3.03866 35.0645 3.22515 35.335 3.59694L36.6207 5.36457C37.0323 5.93036 37.6336 6.33276 38.3137 6.49733L40.4406 7.0121C40.8865 7.12006 41.2306 7.46402 41.3386 7.91004L41.8532 10.0369C42.0178 10.7171 42.4201 11.3185 42.9861 11.7302L44.7533 13.0156C45.1252 13.2861 45.3118 13.7364 45.2402 14.1907L44.9004 16.3503C44.7917 17.0407 44.9323 17.7495 45.2961 18.3462L46.4364 20.2163C46.6751 20.6077 46.6751 21.094 46.4364 21.4853Z" fill="url(#paint3_linear)"/>
</g>
<defs>
<linearGradient id="paint0_linear" x1="11.8027" y1="17.7072" x2="34.9963" y2="17.7072" gradientUnits="userSpaceOnUse">
<stop stop-color="#CCD500"/>
<stop offset="1" stop-color="#D7FA00"/>
</linearGradient>
<linearGradient id="paint1_linear" x1="17.5215" y1="24.6581" x2="43.1284" y2="24.6581" gradientUnits="userSpaceOnUse">
<stop stop-color="#CCD500"/>
<stop offset="1" stop-color="#D7FA00"/>
</linearGradient>
<linearGradient id="paint2_linear" x1="36.3789" y1="10.3634" x2="39.4207" y2="10.3634" gradientUnits="userSpaceOnUse">
<stop stop-color="#CCD500"/>
<stop offset="1" stop-color="#D7FA00"/>
</linearGradient>
<linearGradient id="paint3_linear" x1="6.64844" y1="26.9388" x2="48.35" y2="26.9388" gradientUnits="userSpaceOnUse">
<stop stop-color="#CCD500"/>
<stop offset="1" stop-color="#D7FA00"/>
</linearGradient>
<clipPath id="clip0">
<rect width="55" height="55" fill="white"/>
</clipPath>
</defs>
</svg>
