<svg width="46" height="42" viewBox="0 0 46 42" fill="none" xmlns="http://www.w3.org/2000/svg">
<path fill-rule="evenodd" clip-rule="evenodd" d="M33 1.92601C39.9001 5.5857 44.6 12.8427 44.6 21.1975C44.6 29.5522 39.9001 36.8093 33 40.469L33 41.5942C40.4712 37.8507 45.6 30.1231 45.6 21.1975C45.6 12.2719 40.4712 4.54424 33 0.800742L33 1.92601ZM12.6 40.469C5.69988 36.8093 0.999999 29.5522 0.999999 21.1975C0.999999 12.8427 5.69988 5.5857 12.6 1.92601L12.6 0.800743C5.12876 4.54424 -1.28172e-06 12.2719 -8.9157e-07 21.1975C-5.01421e-07 30.1231 5.12877 37.8507 12.6 41.5942L12.6 40.469Z" fill="#595F54"/>
</svg>
