<svg width="39" height="45" viewBox="0 0 39 45" fill="none" xmlns="http://www.w3.org/2000/svg">
<path fill-rule="evenodd" clip-rule="evenodd" d="M28.0077 34.5981C33.3881 31.4849 37.0078 25.6671 37.0078 19.0039C37.0078 9.06062 28.9472 1 19.0039 1C9.06062 1 1 9.06062 1 19.0039C1 26.0737 5.07495 32.1917 11.0042 35.1374V36.2471C4.50577 33.2271 0 26.6417 0 19.0039C0 8.50834 8.50834 0 19.0039 0C29.4995 0 38.0078 8.50834 38.0078 19.0039C38.0078 26.2418 33.9616 32.5345 28.0077 35.7437V34.5981Z" fill="#595F54"/>
<path d="M18.6464 44.3536C18.8417 44.5488 19.1583 44.5488 19.3536 44.3536L22.5355 41.1716C22.7308 40.9763 22.7308 40.6597 22.5355 40.4645C22.3403 40.2692 22.0237 40.2692 21.8284 40.4645L19 43.2929L16.1716 40.4645C15.9763 40.2692 15.6597 40.2692 15.4645 40.4645C15.2692 40.6597 15.2692 40.9763 15.4645 41.1716L18.6464 44.3536ZM18.5 30L18.5 44L19.5 44L19.5 30L18.5 30Z" fill="#242424"/>
</svg>
