<svg width="26" height="28" viewBox="0 0 26 28" fill="none" xmlns="http://www.w3.org/2000/svg">

        <path d="M13 27.3564C20.1684 27.3564 26 21.3006 26 13.8564C26 6.41232 20.1684 0.356445 13 0.356445C5.83158 0.356445 0 6.41232 0 13.8564C0 21.3006 5.83158 27.3564 13 27.3564ZM13 2.04395C19.2725 2.04395 24.375 7.3427 24.375 13.8564C24.375 20.3702 19.2725 25.6689 13 25.6689C6.7275 25.6689 1.625 20.3702 1.625 13.8564C1.625 7.3427 6.7275 2.04395 13 2.04395Z"
        />
        <path d="M8.55592 16.2803L10.2546 15.5142L9.77792 16.0103C9.62517 16.169 9.53958 16.3838 9.53958 16.6066V19.9085C9.53958 20.6645 10.4192 21.0312 10.9262 20.5047L12.6314 18.734L16.3472 20.6633C16.8282 20.9131 17.41 20.6172 17.5097 20.0592L19.6298 7.95309C19.7413 7.30171 19.1238 6.77521 18.5334 7.01596L4.75775 12.6151C4.14025 12.8648 4.05792 13.7423 4.61692 14.1125L7.79542 16.2185C8.02292 16.3692 8.31 16.3928 8.55592 16.2803ZM17.7708 9.13996L16.1057 18.6518L12.834 16.9542C12.5177 16.79 12.1407 16.8586 11.8969 17.1128L11.1646 17.8733V16.9587L14.4222 13.5758C15.0537 12.92 14.3431 11.8377 13.5241 12.2056L8.30567 14.5568L6.83883 13.5848L17.7708 9.13996Z"
        />

</svg>
