<svg width="28" height="28" viewBox="0 0 28 28" fill="none" xmlns="http://www.w3.org/2000/svg">

    <path d="M27.0157 15.9868C27.8511 9.20639 26.6144 4.92577 24.3837 2.98964L24.3849 2.98852C20.7846 -0.317855 8.62556 -0.807231 4.31822 3.13702C2.38389 5.06639 1.70256 7.89802 1.62789 11.4035C1.55322 14.9101 1.46456 21.479 7.81239 23.261H7.81822L7.81239 25.9824C7.81239 25.9824 7.76922 27.0849 8.49956 27.3065C9.33489 27.5675 9.71289 27.0556 12.3111 24.0631C16.6557 24.4265 19.9924 23.594 20.3716 23.4725C21.2489 23.189 26.2131 22.5556 27.0157 15.9868ZM12.7392 22.1484C12.7392 22.1484 9.98939 25.4548 9.13422 26.3131C8.85422 26.5921 8.54739 26.5663 8.55206 26.0128C8.55206 25.6494 8.57306 21.4948 8.57306 21.4948C3.19122 20.0075 3.50856 14.414 3.56689 11.4879C3.62522 8.56064 4.18056 6.16327 5.81856 4.54889C9.59739 1.13227 20.2572 1.89614 22.9732 4.35764C26.2936 7.19602 25.1117 15.215 25.1187 15.4884C24.4362 20.9716 20.4136 21.3193 19.6739 21.5566C19.3577 21.6579 16.4236 22.3858 12.7392 22.1484Z"
          />
    <path d="M14.2568 5.18994C13.8076 5.18994 13.8076 5.86488 14.2568 5.87051C17.7416 5.89638 20.6116 8.23842 20.6431 12.5344C20.6431 12.9878 21.3315 12.9821 21.3256 12.5288H21.3245C21.2871 7.89983 18.1535 5.21581 14.2568 5.18994Z"
          />
    <path d="M18.8424 11.8227C18.8319 12.2704 19.5191 12.2918 19.5249 11.8384C19.5821 9.28604 17.9499 7.1836 14.8828 6.962C14.4336 6.9305 14.3869 7.61106 14.8349 7.64256C17.4949 7.83717 18.8961 9.58751 18.8424 11.8227Z"
          />
    <path d="M18.1079 14.7266C17.5316 14.4048 16.9448 14.6051 16.7021 14.9212L16.1946 15.5546C15.9368 15.8763 15.4549 15.8336 15.4549 15.8336C11.9386 14.937 10.9983 11.3887 10.9983 11.3887C10.9983 11.3887 10.9551 10.9083 11.2771 10.6507L11.9118 10.1445C12.2291 9.90146 12.4298 9.31645 12.1066 8.74158C11.2433 7.23745 10.6634 6.71883 10.3683 6.32058C10.0579 5.94595 9.59125 5.86158 9.10592 6.1147H9.09542C8.08625 6.68395 6.98142 7.74933 7.33492 8.8462C7.93809 10.0027 9.04642 13.6893 12.5791 16.4748C14.2393 17.7922 16.8666 19.1422 17.9819 19.4538L17.9924 19.4696C19.0914 19.8228 20.1601 18.7158 20.7306 17.7135V17.7056C20.9838 17.2207 20.8998 16.7617 20.5299 16.4613C19.8743 15.8448 18.8849 15.1642 18.1079 14.7266Z"
          />
    <path d="M15.3636 9.47279C16.4847 9.53578 17.0284 10.1005 17.0867 11.2603C17.1077 11.7136 17.7902 11.6821 17.7692 11.2288C17.6946 9.71464 16.8756 8.87097 15.4009 8.79222C14.9517 8.76635 14.9097 9.44692 15.3636 9.47279Z"
          />

</svg>
